<svg xmlns="http://www.w3.org/2000/svg" viewBox="0 0 192 128"><defs><radialGradient id="C" cx="30%" cy="25%" r="75%"><stop stop-color="#e6f0f5"/><stop offset=".3" stop-color="#64748b"/><stop offset="1" stop-color="#404a59"/></radialGradient><radialGradient id="O" cx="30%" cy="25%" r="75%"><stop stop-color="#e6f0f5"/><stop offset=".3" stop-color="#ef4444"/><stop offset="1" stop-color="#992c2c"/></radialGradient><radialGradient id="H" cx="30%" cy="25%" r="75%"><stop stop-color="#e6f0f5"/><stop offset=".3" stop-color="#f8fafc"/><stop offset="1" stop-color="#9fa0a1"/></radialGradient></defs><circle cx="109.74" cy="64.51" r="4.61" fill="url(#H)"/><path d="M111.36 56.97L110.71 60.01" stroke="#90acbc" stroke-width="1.8" stroke-linecap="round"/><circle cx="129.95" cy="40.79" r="6.04" fill="url(#O)"/><path d="M117.63 46.02L124.12 42.36" stroke="#90acbc" stroke-width="1.8" stroke-linecap="round"/><path d="M119.11 48.63L125.59 44.97" stroke="#90acbc" stroke-width="1.8" stroke-linecap="round"/><circle cx="112.75" cy="50.49" r="6.62" fill="url(#C)"/><circle cx="74.54" cy="59.95" r="4.61" fill="url(#H)"/><path d="M106.86 47.48L102.98 45.5" stroke="#90acbc" stroke-width="1.8" stroke-linecap="round"/><circle cx="91.65" cy="89.58" r="4.61" fill="url(#H)"/><path d="M93.42 47.11L86.88 53.93" stroke="#90acbc" stroke-width="1.8" stroke-linecap="round"/><circle cx="97.6" cy="42.74" r="6.04" fill="url(#O)"/><circle cx="82.29" cy="58.71" r="6.62" fill="url(#C)"/><path d="M85.25 64.63L89.67 73.46" stroke="#90acbc" stroke-width="1.8" stroke-linecap="round"/><path d="M76.03 56.57L75.5 56.39" stroke="#90acbc" stroke-width="1.8" stroke-linecap="round"/><circle cx="92.63" cy="79.38" r="6.62" fill="url(#C)"/><path d="M99.16 78.28L104.15 77.44" stroke="#90acbc" stroke-width="1.8" stroke-linecap="round"/><circle cx="108.69" cy="76.67" r="4.61" fill="url(#H)"/><circle cx="71.14" cy="54.9" r="4.61" fill="url(#H)"/><circle cx="85.01" cy="86.27" r="4.61" fill="url(#H)"/></svg>
