<svg xmlns="http://www.w3.org/2000/svg" viewBox="0 0 192 128"><defs><radialGradient id="C" cx="30%" cy="25%" r="75%"><stop stop-color="#fff" stop-opacity=".9"/><stop offset=".3" stop-color="#64748b"/><stop offset="1" stop-color="#64748b" stop-opacity=".65"/></radialGradient><radialGradient id="H" cx="30%" cy="25%" r="75%"><stop stop-color="#fff" stop-opacity=".9"/><stop offset=".3" stop-color="#f8fafc"/><stop offset="1" stop-color="#f8fafc" stop-opacity=".65"/></radialGradient></defs><circle cx="124.38" cy="75.03" r="3.94" fill="url(#H)"/><path d="M127.53 75.14L124.38 75.03" stroke="#90acbc" stroke-width="1.6" stroke-linecap="round"/><circle cx="127.53" cy="75.14" r="5.66" fill="url(#C)"/><path d="M127.53 75.14L137.98 65.81" stroke="#90acbc" stroke-width="1.6" stroke-linecap="round"/><path d="M127.53 75.14L131.78 88.24" stroke="#90acbc" stroke-width="1.6" stroke-linecap="round"/><circle cx="137.98" cy="65.81" r="3.94" fill="url(#H)"/><circle cx="131.78" cy="88.24" r="3.94" fill="url(#H)"/><path d="M110.99 70.34L127.53 75.14" stroke="#90acbc" stroke-width="1.6" stroke-linecap="round"/><circle cx="95.74" cy="96.6" r="3.94" fill="url(#H)"/><circle cx="110.99" cy="70.34" r="5.66" fill="url(#C)"/><path d="M95.88 83.06L95.74 96.6" stroke="#90acbc" stroke-width="1.6" stroke-linecap="round"/><path d="M110.99 70.34L95.88 83.06" stroke="#90acbc" stroke-width="1.6" stroke-linecap="round"/><path d="M110.28 53.07L110.99 70.34" stroke="#90acbc" stroke-width="1.6" stroke-linecap="round"/><circle cx="121.31" cy="44.63" r="3.94" fill="url(#H)"/><path d="M110.28 53.07L121.31 44.63" stroke="#90acbc" stroke-width="1.6" stroke-linecap="round"/><circle cx="95.88" cy="83.06" r="5.66" fill="url(#C)"/><circle cx="110.28" cy="53.07" r="5.66" fill="url(#C)"/><path d="M95.88 83.06L81.41 77.24" stroke="#90acbc" stroke-width="1.6" stroke-linecap="round"/><path d="M87.32 61.1L86.9 62.07L86.56 63.06L86.31 64.07L86.16 65.09L86.09 66.1L86.11 67.1L86.23 68.08L86.43 69.02L86.73 69.93L87.11 70.78L87.57 71.58L88.11 72.31L88.73 72.97L89.41 73.55L90.15 74.05L90.94 74.46L91.78 74.77L92.66 74.99L93.56 75.11L94.48 75.13L95.42 75.05L96.36 74.87L97.29 74.59L98.21 74.22L99.1 73.76L99.96 73.21L100.77 72.58L101.54 71.88L102.25 71.1L102.9 70.27L103.47 69.38L103.97 68.45L104.4 67.48L104.73 66.49L104.98 65.48L105.14 64.47L105.21 63.45L105.19 62.45L105.07 61.47L104.86 60.53L104.57 59.62L104.19 58.77L103.73 57.97L103.18 57.24L102.57 56.58L101.89 56L101.15 55.5L100.36 55.09L99.52 54.78L98.64 54.56L97.74 54.44L96.81 54.43L95.88 54.51L94.94 54.68L94.01 54.96L93.09 55.33L92.2 55.79L91.34 56.34L90.53 56.97L89.76 57.68L89.05 58.45L88.4 59.28L87.82 60.17Z" fill="none" stroke="#66d8dc" stroke-width="1.7"/><path d="M94.55 46.73L110.28 53.07" stroke="#90acbc" stroke-width="1.6" stroke-linecap="round"/><circle cx="81.41" cy="77.24" r="5.66" fill="url(#C)"/><path d="M81.41 77.24L71.15 86.8" stroke="#90acbc" stroke-width="1.6" stroke-linecap="round"/><circle cx="71.15" cy="86.8" r="3.94" fill="url(#H)"/><path d="M81.41 77.24L80.78 58.21" stroke="#90acbc" stroke-width="1.6" stroke-linecap="round"/><circle cx="94.55" cy="46.73" r="5.66" fill="url(#C)"/><path d="M80.78 58.21L94.55 46.73" stroke="#90acbc" stroke-width="1.6" stroke-linecap="round"/><path d="M94.55 46.73L93.28 33.46" stroke="#90acbc" stroke-width="1.6" stroke-linecap="round"/><circle cx="80.78" cy="58.21" r="5.66" fill="url(#C)"/><circle cx="93.28" cy="33.46" r="3.94" fill="url(#H)"/><circle cx="58.31" cy="40.89" r="3.94" fill="url(#H)"/><path d="M80.78 58.21L65.53 50.54" stroke="#90acbc" stroke-width="1.6" stroke-linecap="round"/><path d="M65.53 50.54L58.31 40.89" stroke="#90acbc" stroke-width="1.6" stroke-linecap="round"/><circle cx="65.53" cy="50.54" r="5.66" fill="url(#C)"/><path d="M65.53 50.54L56.83 61.4" stroke="#90acbc" stroke-width="1.6" stroke-linecap="round"/><circle cx="56.83" cy="61.4" r="3.94" fill="url(#H)"/><path d="M65.53 50.54L70.29 44.8" stroke="#90acbc" stroke-width="1.6" stroke-linecap="round"/><circle cx="70.29" cy="44.8" r="3.94" fill="url(#H)"/></svg>
