<svg xmlns="http://www.w3.org/2000/svg" viewBox="0 0 192 128"><defs><radialGradient id="C" cx="30%" cy="25%" r="75%"><stop stop-color="#e6f0f5"/><stop offset=".3" stop-color="#64748b"/><stop offset="1" stop-color="#404a59"/></radialGradient><radialGradient id="O" cx="30%" cy="25%" r="75%"><stop stop-color="#e6f0f5"/><stop offset=".3" stop-color="#ef4444"/><stop offset="1" stop-color="#992c2c"/></radialGradient><radialGradient id="H" cx="30%" cy="25%" r="75%"><stop stop-color="#e6f0f5"/><stop offset=".3" stop-color="#f8fafc"/><stop offset="1" stop-color="#9fa0a1"/></radialGradient></defs><circle cx="128.65" cy="57.16" r="7.73" fill="url(#O)"/><path d="M126.45 49.76L124.91 44.55" stroke="#90acbc" stroke-width="2.3" stroke-linecap="round"/><circle cx="123.23" cy="38.91" r="5.89" fill="url(#H)"/><path d="M115.54 67.5L122.58 61.95" stroke="#90acbc" stroke-width="2.3" stroke-linecap="round"/><path d="M110.85 80.97L111.37 90.49" stroke="#90acbc" stroke-width="2.3" stroke-linecap="round"/><path d="M107.85 81.13L108.38 90.65" stroke="#90acbc" stroke-width="2.3" stroke-linecap="round"/><circle cx="110.29" cy="98.14" r="7.73" fill="url(#O)"/><circle cx="108.89" cy="72.74" r="8.46" fill="url(#C)"/><path d="M94.61 64.01L101.68 68.33" stroke="#90acbc" stroke-width="2.3" stroke-linecap="round"/><circle cx="53.7" cy="75.25" r="5.89" fill="url(#H)"/><circle cx="87.4" cy="59.6" r="8.46" fill="url(#C)"/><path d="M80.26 64.15L71.07 70.02" stroke="#90acbc" stroke-width="2.3" stroke-linecap="round"/><path d="M87.27 51.14L88.57 43.27" stroke="#90acbc" stroke-width="2.3" stroke-linecap="round"/><path d="M90.23 51.63L91.53 43.76" stroke="#90acbc" stroke-width="2.3" stroke-linecap="round"/><circle cx="64.56" cy="74.17" r="7.73" fill="url(#O)"/><circle cx="91.28" cy="36.03" r="7.73" fill="url(#O)"/></svg>
