<svg xmlns="http://www.w3.org/2000/svg" viewBox="0 0 192 128"><defs><radialGradient id="C" cx="30%" cy="25%" r="75%"><stop stop-color="#e6f0f5"/><stop offset=".3" stop-color="#64748b"/><stop offset="1" stop-color="#404a59"/></radialGradient><radialGradient id="O" cx="30%" cy="25%" r="75%"><stop stop-color="#e6f0f5"/><stop offset=".3" stop-color="#ef4444"/><stop offset="1" stop-color="#992c2c"/></radialGradient><radialGradient id="H" cx="30%" cy="25%" r="75%"><stop stop-color="#e6f0f5"/><stop offset=".3" stop-color="#f8fafc"/><stop offset="1" stop-color="#9fa0a1"/></radialGradient></defs><circle cx="103.12" cy="50.31" r="5.08" fill="url(#H)"/><path d="M97.19 54.64L99.02 53.31" stroke="#90acbc" stroke-width="1.99" stroke-linecap="round"/><circle cx="91.8" cy="58.58" r="6.67" fill="url(#O)"/><circle cx="120.54" cy="60.21" r="5.08" fill="url(#H)"/><path d="M109.53 60.76L115.47 60.46" stroke="#90acbc" stroke-width="1.99" stroke-linecap="round"/><circle cx="102.24" cy="61.12" r="7.31" fill="url(#C)"/><circle cx="79.58" cy="89.84" r="5.08" fill="url(#H)"/><path d="M97.58 77.25L100.21 68.14" stroke="#90acbc" stroke-width="1.99" stroke-linecap="round"/><path d="M88.65 86.68L84.38 88.17" stroke="#90acbc" stroke-width="1.99" stroke-linecap="round"/><circle cx="108.66" cy="96.61" r="5.08" fill="url(#H)"/><path d="M99.37 54.4L96.91 48.65" stroke="#90acbc" stroke-width="1.99" stroke-linecap="round"/><circle cx="80.72" cy="32.37" r="5.08" fill="url(#H)"/><path d="M100.87 89.28L104.96 93.13" stroke="#90acbc" stroke-width="1.99" stroke-linecap="round"/><circle cx="95.55" cy="84.27" r="7.31" fill="url(#C)"/><path d="M88.11 37.67L84.85 35.33" stroke="#90acbc" stroke-width="1.99" stroke-linecap="round"/><circle cx="94.05" cy="41.93" r="7.31" fill="url(#C)"/><path d="M99.77 37.39L104.15 33.91" stroke="#90acbc" stroke-width="1.99" stroke-linecap="round"/><circle cx="108.13" cy="30.74" r="5.08" fill="url(#H)"/><circle cx="87.38" cy="48.9" r="5.08" fill="url(#H)"/><circle cx="93.39" cy="82.48" r="6.67" fill="url(#O)"/><path d="M89.02 87.52L86.18 90.79" stroke="#90acbc" stroke-width="1.99" stroke-linecap="round"/><circle cx="82.84" cy="94.63" r="5.08" fill="url(#H)"/></svg>
