<svg xmlns="http://www.w3.org/2000/svg" viewBox="0 0 192 128"><defs><radialGradient id="C" cx="30%" cy="25%" r="75%"><stop stop-color="#e6f0f5"/><stop offset=".3" stop-color="#64748b"/><stop offset="1" stop-color="#404a59"/></radialGradient><radialGradient id="O" cx="30%" cy="25%" r="75%"><stop stop-color="#e6f0f5"/><stop offset=".3" stop-color="#ef4444"/><stop offset="1" stop-color="#992c2c"/></radialGradient><radialGradient id="H" cx="30%" cy="25%" r="75%"><stop stop-color="#e6f0f5"/><stop offset=".3" stop-color="#f8fafc"/><stop offset="1" stop-color="#9fa0a1"/></radialGradient></defs><circle cx="96.09" cy="50.05" r="4.88" fill="url(#H)"/><path d="M91.04 52.51L91.7 52.19" stroke="#90acbc" stroke-width="1.91" stroke-linecap="round"/><circle cx="85.27" cy="55.31" r="6.41" fill="url(#O)"/><path d="M91.96 59.11L90.84 58.48" stroke="#90acbc" stroke-width="1.91" stroke-linecap="round"/><circle cx="115.23" cy="61.94" r="4.88" fill="url(#H)"/><circle cx="77.86" cy="91.14" r="4.88" fill="url(#H)"/><path d="M105.08 62.32L110.35 62.12" stroke="#90acbc" stroke-width="1.91" stroke-linecap="round"/><circle cx="98.06" cy="62.58" r="7.02" fill="url(#C)"/><path d="M85.1 88.57L82.46 89.51" stroke="#90acbc" stroke-width="1.91" stroke-linecap="round"/><path d="M93.54 79.45L96.24 69.36" stroke="#90acbc" stroke-width="1.91" stroke-linecap="round"/><circle cx="105.4" cy="97.01" r="4.88" fill="url(#H)"/><path d="M97.23 90.57L101.57 93.98" stroke="#90acbc" stroke-width="1.91" stroke-linecap="round"/><circle cx="91.72" cy="86.23" r="7.02" fill="url(#C)"/><path d="M96.07 55.85L95.64 54.39" stroke="#90acbc" stroke-width="1.91" stroke-linecap="round"/><circle cx="102.54" cy="32.5" r="4.88" fill="url(#H)"/><path d="M97.2 41.6L100.07 36.71" stroke="#90acbc" stroke-width="1.91" stroke-linecap="round"/><path d="M86.76 46.28L81.12 45.16" stroke="#90acbc" stroke-width="1.91" stroke-linecap="round"/><circle cx="93.64" cy="47.66" r="7.02" fill="url(#C)"/><circle cx="76.33" cy="44.2" r="4.88" fill="url(#H)"/><circle cx="86.89" cy="87.43" r="4.88" fill="url(#H)"/><circle cx="107.33" cy="75.16" r="4.88" fill="url(#H)"/><path d="M103.72 65.52L105.62 70.59" stroke="#90acbc" stroke-width="1.91" stroke-linecap="round"/><circle cx="101.26" cy="58.95" r="7.02" fill="url(#C)"/><path d="M107.04 54.97L110.53 52.56" stroke="#90acbc" stroke-width="1.91" stroke-linecap="round"/><path d="M94.27 59.52L92.67 59.65" stroke="#90acbc" stroke-width="1.91" stroke-linecap="round"/><circle cx="114.55" cy="49.79" r="4.88" fill="url(#H)"/><circle cx="87.81" cy="60.05" r="4.88" fill="url(#H)"/></svg>
