<svg xmlns="http://www.w3.org/2000/svg" viewBox="0 0 192 128"><defs><radialGradient id="C" cx="30%" cy="25%" r="75%"><stop stop-color="#fff" stop-opacity=".9"/><stop offset=".3" stop-color="#64748b"/><stop offset="1" stop-color="#64748b" stop-opacity=".65"/></radialGradient><radialGradient id="O" cx="30%" cy="25%" r="75%"><stop stop-color="#fff" stop-opacity=".9"/><stop offset=".3" stop-color="#ef4444"/><stop offset="1" stop-color="#ef4444" stop-opacity=".65"/></radialGradient><radialGradient id="H" cx="30%" cy="25%" r="75%"><stop stop-color="#fff" stop-opacity=".9"/><stop offset=".3" stop-color="#f8fafc"/><stop offset="1" stop-color="#f8fafc" stop-opacity=".65"/></radialGradient></defs><circle cx="95.49" cy="71.75" r="4.36" fill="url(#H)"/><circle cx="70.15" cy="67.73" r="4.36" fill="url(#H)"/><path d="M83.37 72.37L95.49 71.75" stroke="#90acbc" stroke-width="1.7" stroke-linecap="round"/><path d="M83.37 72.37L70.15 67.73" stroke="#90acbc" stroke-width="1.7" stroke-linecap="round"/><circle cx="88.4" cy="103.31" r="4.36" fill="url(#H)"/><circle cx="111" cy="53.28" r="4.36" fill="url(#H)"/><circle cx="83.37" cy="72.37" r="6.27" fill="url(#C)"/><path d="M80.85 93.42L88.4 103.31" stroke="#90acbc" stroke-width="1.7" stroke-linecap="round"/><path d="M80.85 93.42L83.37 72.37" stroke="#90acbc" stroke-width="1.7" stroke-linecap="round"/><path d="M107.42 54.6L111 53.28" stroke="#90acbc" stroke-width="1.7" stroke-linecap="round"/><path d="M80.85 93.42L65.49 97.09" stroke="#90acbc" stroke-width="1.7" stroke-linecap="round"/><circle cx="80.85" cy="93.42" r="6.27" fill="url(#C)"/><path d="M83.37 72.37L87.19 59.74" stroke="#90acbc" stroke-width="1.7" stroke-linecap="round"/><circle cx="65.49" cy="97.09" r="4.36" fill="url(#H)"/><path d="M80.85 93.42L86.94 94.69" stroke="#90acbc" stroke-width="1.7" stroke-linecap="round"/><circle cx="107.42" cy="54.6" r="6.27" fill="url(#C)"/><circle cx="108.19" cy="23.14" r="4.36" fill="url(#H)"/><path d="M87.19 59.74L107.42 54.6" stroke="#90acbc" stroke-width="1.7" stroke-linecap="round"/><circle cx="87.19" cy="59.74" r="5.72" fill="url(#O)"/><path d="M107.42 54.6L116.39 65.82" stroke="#90acbc" stroke-width="1.7" stroke-linecap="round"/><path d="M107.42 54.6L111.18 35" stroke="#90acbc" stroke-width="1.7" stroke-linecap="round"/><path d="M111.18 35L108.19 23.14" stroke="#90acbc" stroke-width="1.7" stroke-linecap="round"/><circle cx="116.39" cy="65.82" r="4.36" fill="url(#H)"/><circle cx="86.94" cy="94.69" r="4.36" fill="url(#H)"/><circle cx="111.18" cy="35" r="6.27" fill="url(#C)"/><path d="M111.18 35L126.24 34.29" stroke="#90acbc" stroke-width="1.7" stroke-linecap="round"/><circle cx="126.24" cy="34.29" r="4.36" fill="url(#H)"/><path d="M111.18 35L101.7 33.76" stroke="#90acbc" stroke-width="1.7" stroke-linecap="round"/><circle cx="101.7" cy="33.76" r="4.36" fill="url(#H)"/></svg>
