<svg xmlns="http://www.w3.org/2000/svg" viewBox="0 0 192 128"><defs><radialGradient id="C" cx="30%" cy="25%" r="75%"><stop stop-color="#fff" stop-opacity=".9"/><stop offset=".3" stop-color="#64748b"/><stop offset="1" stop-color="#64748b" stop-opacity=".65"/></radialGradient><radialGradient id="O" cx="30%" cy="25%" r="75%"><stop stop-color="#fff" stop-opacity=".9"/><stop offset=".3" stop-color="#ef4444"/><stop offset="1" stop-color="#ef4444" stop-opacity=".65"/></radialGradient><radialGradient id="H" cx="30%" cy="25%" r="75%"><stop stop-color="#fff" stop-opacity=".9"/><stop offset=".3" stop-color="#f8fafc"/><stop offset="1" stop-color="#f8fafc" stop-opacity=".65"/></radialGradient></defs><circle cx="103.78" cy="52.03" r="4.51" fill="url(#H)"/><circle cx="80.35" cy="72.07" r="4.51" fill="url(#H)"/><path d="M111.12 50.88L103.78 52.03" stroke="#90acbc" stroke-width="1.76" stroke-linecap="round"/><circle cx="127.14" cy="53.67" r="4.51" fill="url(#H)"/><path d="M80.8 72.58L80.35 72.07" stroke="#90acbc" stroke-width="1.76" stroke-linecap="round"/><path d="M111.12 50.88L127.14 53.67" stroke="#90acbc" stroke-width="1.76" stroke-linecap="round"/><circle cx="111.12" cy="50.88" r="6.49" fill="url(#C)"/><path d="M111.12 50.88L108.81 35.88" stroke="#90acbc" stroke-width="1.76" stroke-linecap="round"/><circle cx="67.84" cy="98.43" r="4.51" fill="url(#H)"/><circle cx="108.81" cy="35.88" r="4.51" fill="url(#H)"/><path d="M101.99 66.56L111.12 50.88" stroke="#90acbc" stroke-width="1.76" stroke-linecap="round"/><circle cx="80.8" cy="72.58" r="6.49" fill="url(#C)"/><path d="M76.23 92.68L67.84 98.43" stroke="#90acbc" stroke-width="1.76" stroke-linecap="round"/><path d="M80.8 72.58L69.77 62.16" stroke="#90acbc" stroke-width="1.76" stroke-linecap="round"/><path d="M80.8 72.58L76.23 92.68" stroke="#90acbc" stroke-width="1.76" stroke-linecap="round"/><path d="M101.99 66.56L80.8 72.58" stroke="#90acbc" stroke-width="1.76" stroke-linecap="round"/><circle cx="69.77" cy="62.16" r="4.51" fill="url(#H)"/><circle cx="76.23" cy="92.68" r="5.92" fill="url(#O)"/><path d="M101.99 66.56L111.56 79.81" stroke="#90acbc" stroke-width="1.76" stroke-linecap="round"/><circle cx="101.99" cy="66.56" r="6.49" fill="url(#C)"/><circle cx="111.56" cy="79.81" r="4.51" fill="url(#H)"/><path d="M101.99 66.56L100.43 57.41" stroke="#90acbc" stroke-width="1.76" stroke-linecap="round"/><circle cx="100.43" cy="57.41" r="6.49" fill="url(#C)"/><path d="M100.43 57.41L85.82 50.3" stroke="#90acbc" stroke-width="1.76" stroke-linecap="round"/><path d="M100.43 57.41L112.23 46.28" stroke="#90acbc" stroke-width="1.76" stroke-linecap="round"/><circle cx="85.82" cy="50.3" r="4.51" fill="url(#H)"/><circle cx="112.23" cy="46.28" r="4.51" fill="url(#H)"/><path d="M100.43 57.41L102.14 69.26" stroke="#90acbc" stroke-width="1.76" stroke-linecap="round"/><circle cx="102.14" cy="69.26" r="4.51" fill="url(#H)"/></svg>
